<svg xmlns="http://www.w3.org/2000/svg" xmlns:xlink="http://www.w3.org/1999/xlink" x="0" y="0" width="370" height="164.7135467529297" style="
        width:370px;
        height:164.7135467529297px;
        background: transparent;
        fill: none;
">
        
        
        <svg xmlns="http://www.w3.org/2000/svg" class="role-diagram-draw-area"><g class="shapes-region" style="stroke: black; fill: none;"><g/></g><g><g class="connection-group"><g class="arrow-line"><path class="connection real" stroke-dasharray="" d="  M58.78,23.96 L266.64,23.37" style="stroke: rgb(181,232,83); stroke-opacity: 1; stroke-width: 1; fill: none; fill-opacity: 1;"/><g stroke="rgb(181,232,83)" stroke-opacity="1" transform="matrix(-0.9999961008995606,0.002792523173744459,-0.002792523173744459,-0.9999961008995606,268.6423745153556,23.366178113069758)" style="stroke: rgb(181,232,83); stroke-width: 1;"><path d=" M10.93,-3.29 Q4.96,-0.45 0,0 Q4.96,0.45 10.93,3.29"/></g></g></g><g class="connection-group"><g class="arrow-line"><path class="connection real" stroke-dasharray="" d="  M49.84,37.04 L50.62,108.82" style="stroke: rgb(255,255,255); stroke-width: 1; fill: none; fill-opacity: 1;"/><g stroke="#000" transform="matrix(-0.010820830182077057,-0.9999414531032158,0.9999414531032158,-0.010820830182077057,50.638242773883384,110.82310759404393)" style="stroke: rgb(255,255,255); stroke-width: 1;"><path d=" M10.93,-3.29 Q4.96,-0.45 0,0 Q4.96,0.45 10.93,3.29"/></g></g></g><g class="connection-group"><g class="arrow-line"><path class="connection real" stroke-dasharray="" d="  M69.36,124.05 L211.22,124.84" style="stroke: rgb(255,255,255); stroke-width: 1; fill: none; fill-opacity: 1;"/><g stroke="#000" transform="matrix(-0.9999844036286483,-0.00558502457082784,0.00558502457082784,-0.9999844036286483,213.2222381860926,124.85056671781585)" style="stroke: rgb(255,255,255); stroke-width: 1;"><path d=" M10.93,-3.29 Q4.96,-0.45 0,0 Q4.96,0.45 10.93,3.29"/></g></g></g><g class="connection-group"><g class="arrow-line"><path class="connection real" stroke-dasharray="" d="  M287.89,38.44 L288.66,110.72" style="stroke: rgb(255,255,255); stroke-width: 1; fill: none; fill-opacity: 1;"/><g stroke="#000" transform="matrix(0.010646307311313823,0.9999433264643717,-0.9999433264643717,0.010646307311313823,287.8642432273946,36.439303108314505)" style="stroke: rgb(255,255,255); stroke-width: 1;"><path d=" M10.93,-4.9 Q4.96,-1 0,0 Q4.96,1 10.93,4.9"/></g></g></g></g><g/><g/></svg>
        <svg xmlns="http://www.w3.org/2000/svg" xmlns:xlink="http://www.w3.org/1999/xlink" width="368" height="162.7135467529297" style="width:368px;height:162.7135467529297px;font-family:Asana-Math, Asana;background:transparent;"><g transform="matrix(0.9999718382517224,-0.0075048453329267465,0.0075048453329267465,0.9999718382517224,-0.1785996699630843,0.3736115336355432)"><g><g><g><g><g><g transform="matrix(1,0,0,1,44.473968505859375,31.786468505859375)"><path transform="matrix(0.017,0,0,-0.017,0,0)" d="M9 1C24 -7 40 -11 52 -11C85 -11 124 18 155 65L231 182L242 113C255 28 278 -11 314 -11C336 -11 368 6 400 35L449 79L440 98C404 68 379 53 363 53C348 53 335 63 325 83C316 102 305 139 300 168L282 269L317 318C364 383 391 406 422 406C438 406 450 398 455 383L469 387L484 472C472 479 463 482 454 482C414 482 374 446 312 354L275 299L269 347C257 446 230 482 171 482C145 482 123 474 114 461L56 378L73 368C103 402 123 416 142 416C175 416 197 375 214 277L225 215L185 153C142 86 108 54 80 54C65 54 54 58 52 63L41 91L21 88C21 53 13 27 9 1Z" stroke="rgb(255,255,255)" stroke-opacity="1" stroke-width="8" fill="rgb(255,255,255)" fill-opacity="1"></path></g></g></g></g><svg x="44.46875" overflow="visible" y="12.786468505859375" height="10" width="9.348958969116211"><path d=" M 9.35 4.85 l -3.15 -3.32 l -0.49 0.52 l 1.93 2.33 h -0.15 v 0.90 h 0.15 l -1.93 2.33 l 0.49 0.52 z  M 1.68 5.23 h 7.21 v -0.90 h -7.21 z" style="fill:rgb(255,255,255);fill-opacity:1;stroke-width:1px;stroke:none;stroke-opacity:1;"></path></svg></g></g></g><g transform="matrix(0.9999718382517224,-0.0075048453329267465,0.0075048453329267465,0.9999718382517224,-0.92874091854884,0.38455686381209375)"><g><g><g transform="matrix(1,0,0,1,36.497406005859375,129.75)"><path transform="matrix(0.017,0,0,-0.017,0,0)" d="M88 -184C88 -184 182 -183 182 -183C182 -183 282 -184 282 -184L288 -178L288 -152L284 -147L246 -147C219 -147 197 -141 185 -131C176 -122 173 -108 173 -75L173 616C173 649 176 664 185 673C197 683 219 689 246 689L284 689L288 694L288 720L282 726L188 723L88 726C84 717 83 706 83 691C83 665 87 628 87 578L87 -44C87 -112 85 -140 79 -171Z" stroke="rgb(255,255,255)" stroke-opacity="1" stroke-width="8" fill="rgb(255,255,255)" fill-opacity="1"></path></g></g><g><g transform="matrix(1,0,0,1,42.14324951171875,129.75)"><path transform="matrix(0.017,0,0,-0.017,0,0)" d="M9 1C24 -7 40 -11 52 -11C85 -11 124 18 155 65L231 182L242 113C255 28 278 -11 314 -11C336 -11 368 6 400 35L449 79L440 98C404 68 379 53 363 53C348 53 335 63 325 83C316 102 305 139 300 168L282 269L317 318C364 383 391 406 422 406C438 406 450 398 455 383L469 387L484 472C472 479 463 482 454 482C414 482 374 446 312 354L275 299L269 347C257 446 230 482 171 482C145 482 123 474 114 461L56 378L73 368C103 402 123 416 142 416C175 416 197 375 214 277L225 215L185 153C142 86 108 54 80 54C65 54 54 58 52 63L41 91L21 88C21 53 13 27 9 1Z" stroke="rgb(255,255,255)" stroke-opacity="1" stroke-width="8" fill="rgb(255,255,255)" fill-opacity="1"></path></g></g><g><g transform="matrix(1,0,0,1,50.62762451171875,129.75)"><path transform="matrix(0.017,0,0,-0.017,0,0)" d="M245 -184L254 -171C248 -140 246 -112 246 -44L246 578C246 628 250 665 250 691C250 706 249 717 245 726L51 726L45 720L45 694L49 689L87 689C114 689 136 683 148 673C157 664 160 649 160 616L160 -75C160 -108 157 -122 148 -131C136 -141 114 -147 87 -147L49 -147L45 -152L45 -178L51 -184Z" stroke="rgb(255,255,255)" stroke-opacity="1" stroke-width="8" fill="rgb(255,255,255)" fill-opacity="1"></path></g></g><g><g><g><g><g transform="matrix(1,0,0,1,56.778656005859375,132.75418701171876)"><path transform="matrix(0.0119,0,0,-0.0119,0,0)" d="M543 227C543 337 459 353 377 365C434 385 459 397 490 425C536 464 559 511 559 562C559 644 501 692 401 692C399 692 389 692 374 691L311 690C299 689 263 689 251 689C232 689 201 690 152 691L100 692L97 664L150 662C174 661 185 653 185 635C185 621 181 589 176 559L89 55C85 37 73 30 31 23L26 -3L63 -2C90 0 105 0 117 0C128 0 154 -1 180 -2L217 -3L237 -4C256 -5 269 -6 277 -6C392 -6 543 87 543 227ZM166 41L217 340L302 340C405 340 455 298 455 211C455 108 382 34 282 34C228 34 207 38 166 41ZM352 655C433 655 473 619 473 544C473 439 399 376 275 376L223 376L272 650C288 650 329 655 352 655Z" stroke="rgb(255,255,255)" stroke-opacity="1" stroke-width="8" fill="rgb(255,255,255)" fill-opacity="1"></path></g></g></g></g></g></g></g><g transform="matrix(0.9999718382517224,-0.0075048453329267465,0.0075048453329267465,0.9999718382517224,-0.16681481176755142,2.159980184730479)"><g><g><g transform="matrix(1,0,0,1,272.640625,31.109375)"><path transform="matrix(0.017,0,0,-0.017,0,0)" d="M390 646L463 646C541 646 577 641 580 629C583 621 585 602 584 592L580 528L608 528L635 692L544 691C456 690 388 689 353 689C316 689 252 690 166 691L71 692L53 528L82 528L97 588C102 610 109 626 115 633C121 640 159 646 196 646L308 646L222 125C206 34 204 31 164 28L113 25L109 -3L166 -2C206 -1 235 0 251 0C270 0 301 -1 340 -2L384 -3L387 25L328 28C302 29 292 37 292 58C292 67 293 74 296 93Z" stroke="rgb(255,255,255)" stroke-opacity="1" stroke-width="8" fill="rgb(255,255,255)" fill-opacity="1"></path></g></g><g><g transform="matrix(1,0,0,1,283.015625,31.109375)"><path transform="matrix(0.017,0,0,-0.017,0,0)" d="M146 266C146 526 243 632 301 700L282 726C225 675 60 542 60 266C60 159 85 58 133 -32C168 -99 200 -138 282 -215L301 -194C255 -137 146 -15 146 266Z" stroke="rgb(255,255,255)" stroke-opacity="1" stroke-width="8" fill="rgb(255,255,255)" fill-opacity="1"></path></g></g><g><g><g><g><g transform="matrix(1,0,0,1,288.66668701171875,31.109375)"><path transform="matrix(0.017,0,0,-0.017,0,0)" d="M9 1C24 -7 40 -11 52 -11C85 -11 124 18 155 65L231 182L242 113C255 28 278 -11 314 -11C336 -11 368 6 400 35L449 79L440 98C404 68 379 53 363 53C348 53 335 63 325 83C316 102 305 139 300 168L282 269L317 318C364 383 391 406 422 406C438 406 450 398 455 383L469 387L484 472C472 479 463 482 454 482C414 482 374 446 312 354L275 299L269 347C257 446 230 482 171 482C145 482 123 474 114 461L56 378L73 368C103 402 123 416 142 416C175 416 197 375 214 277L225 215L185 153C142 86 108 54 80 54C65 54 54 58 52 63L41 91L21 88C21 53 13 27 9 1Z" stroke="rgb(255,255,255)" stroke-opacity="1" stroke-width="8" fill="rgb(255,255,255)" fill-opacity="1"></path></g></g></g></g><svg x="288.6614990234375" overflow="visible" y="12.109375" height="10" width="9.348958969116211"><path d=" M 9.35 4.85 l -3.15 -3.32 l -0.49 0.52 l 1.93 2.33 h -0.15 v 0.90 h 0.15 l -1.93 2.33 l 0.49 0.52 z  M 1.68 5.23 h 7.21 v -0.90 h -7.21 z" style="fill:rgb(255,255,255);fill-opacity:1;stroke-width:1px;stroke:none;stroke-opacity:1;"></path></svg></g><g><g transform="matrix(1,0,0,1,297.1614990234375,31.109375)"><path transform="matrix(0.017,0,0,-0.017,0,0)" d="M51 726L32 700C87 636 187 526 187 266C187 -10 83 -131 32 -194L51 -215C104 -165 273 -23 273 265C273 542 108 675 51 726Z" stroke="rgb(255,255,255)" stroke-opacity="1" stroke-width="8" fill="rgb(255,255,255)" fill-opacity="1"></path></g></g></g></g><g transform="matrix(0.9999718382517224,-0.0075048453329267465,0.0075048453329267465,0.9999718382517224,-0.9320049141987852,2.170982225131297)"><g><g><g transform="matrix(1,0,0,1,217.3802490234375,132.078125)"><path transform="matrix(0.017,0,0,-0.017,0,0)" d="M88 -184C88 -184 182 -183 182 -183C182 -183 282 -184 282 -184L288 -178L288 -152L284 -147L246 -147C219 -147 197 -141 185 -131C176 -122 173 -108 173 -75L173 616C173 649 176 664 185 673C197 683 219 689 246 689L284 689L288 694L288 720L282 726L188 723L88 726C84 717 83 706 83 691C83 665 87 628 87 578L87 -44C87 -112 85 -140 79 -171Z" stroke="rgb(255,255,255)" stroke-opacity="1" stroke-width="8" fill="rgb(255,255,255)" fill-opacity="1"></path></g></g><g><g transform="matrix(1,0,0,1,223.02606201171875,132.078125)"><path transform="matrix(0.017,0,0,-0.017,0,0)" d="M390 646L463 646C541 646 577 641 580 629C583 621 585 602 584 592L580 528L608 528L635 692L544 691C456 690 388 689 353 689C316 689 252 690 166 691L71 692L53 528L82 528L97 588C102 610 109 626 115 633C121 640 159 646 196 646L308 646L222 125C206 34 204 31 164 28L113 25L109 -3L166 -2C206 -1 235 0 251 0C270 0 301 -1 340 -2L384 -3L387 25L328 28C302 29 292 37 292 58C292 67 293 74 296 93Z" stroke="rgb(255,255,255)" stroke-opacity="1" stroke-width="8" fill="rgb(255,255,255)" fill-opacity="1"></path></g></g><g><g transform="matrix(1,0,0,1,233.40106201171875,132.078125)"><path transform="matrix(0.017,0,0,-0.017,0,0)" d="M245 -184L254 -171C248 -140 246 -112 246 -44L246 578C246 628 250 665 250 691C250 706 249 717 245 726L51 726L45 720L45 694L49 689L87 689C114 689 136 683 148 673C157 664 160 649 160 616L160 -75C160 -108 157 -122 148 -131C136 -141 114 -147 87 -147L49 -147L45 -152L45 -178L51 -184Z" stroke="rgb(255,255,255)" stroke-opacity="1" stroke-width="8" fill="rgb(255,255,255)" fill-opacity="1"></path></g></g><g><g><g><g><g transform="matrix(1,0,0,1,239.5521240234375,134.74896850585938)"><path transform="matrix(0.0119,0,0,-0.0119,0,0)" d="M543 227C543 337 459 353 377 365C434 385 459 397 490 425C536 464 559 511 559 562C559 644 501 692 401 692C399 692 389 692 374 691L311 690C299 689 263 689 251 689C232 689 201 690 152 691L100 692L97 664L150 662C174 661 185 653 185 635C185 621 181 589 176 559L89 55C85 37 73 30 31 23L26 -3L63 -2C90 0 105 0 117 0C128 0 154 -1 180 -2L217 -3L237 -4C256 -5 269 -6 277 -6C392 -6 543 87 543 227ZM166 41L217 340L302 340C405 340 455 298 455 211C455 108 382 34 282 34C228 34 207 38 166 41ZM352 655C433 655 473 619 473 544C473 439 399 376 275 376L223 376L272 650C288 650 329 655 352 655ZM814 123C787 114 769 108 716 93C709 17 684 -48 626 -144L640 -155L681 -136C762 -31 800 32 828 109ZM904 284C904 90 1011 -18 1202 -18C1298 -18 1369 5 1459 67C1459 67 1469 103 1469 103C1469 103 1459 110 1459 110C1365 53 1313 35 1235 35C1078 35 992 131 992 309C992 447 1049 653 1277 653C1348 653 1400 639 1456 603L1456 519L1483 519C1488 576 1496 619 1510 665C1434 694 1377 706 1315 706C1135 706 904 578 904 284Z" stroke="rgb(255,255,255)" stroke-opacity="1" stroke-width="8" fill="rgb(255,255,255)" fill-opacity="1"></path></g></g></g></g></g><g><g transform="matrix(1,0,0,1,258.96356201171875,132.078125)"><path transform="matrix(0.017,0,0,-0.017,0,0)" d="M88 -184C88 -184 182 -183 182 -183C182 -183 282 -184 282 -184L288 -178L288 -152L284 -147L246 -147C219 -147 197 -141 185 -131C176 -122 173 -108 173 -75L173 616C173 649 176 664 185 673C197 683 219 689 246 689L284 689L288 694L288 720L282 726L188 723L88 726C84 717 83 706 83 691C83 665 87 628 87 578L87 -44C87 -112 85 -140 79 -171Z" stroke="rgb(255,255,255)" stroke-opacity="1" stroke-width="8" fill="rgb(255,255,255)" fill-opacity="1"></path></g></g><g><g transform="matrix(1,0,0,1,264.609375,132.078125)"><path transform="matrix(0.017,0,0,-0.017,0,0)" d="M9 1C24 -7 40 -11 52 -11C85 -11 124 18 155 65L231 182L242 113C255 28 278 -11 314 -11C336 -11 368 6 400 35L449 79L440 98C404 68 379 53 363 53C348 53 335 63 325 83C316 102 305 139 300 168L282 269L317 318C364 383 391 406 422 406C438 406 450 398 455 383L469 387L484 472C472 479 463 482 454 482C414 482 374 446 312 354L275 299L269 347C257 446 230 482 171 482C145 482 123 474 114 461L56 378L73 368C103 402 123 416 142 416C175 416 197 375 214 277L225 215L185 153C142 86 108 54 80 54C65 54 54 58 52 63L41 91L21 88C21 53 13 27 9 1Z" stroke="rgb(255,255,255)" stroke-opacity="1" stroke-width="8" fill="rgb(255,255,255)" fill-opacity="1"></path></g></g><g><g transform="matrix(1,0,0,1,273.09375,132.078125)"><path transform="matrix(0.017,0,0,-0.017,0,0)" d="M245 -184L254 -171C248 -140 246 -112 246 -44L246 578C246 628 250 665 250 691C250 706 249 717 245 726L51 726L45 720L45 694L49 689L87 689C114 689 136 683 148 673C157 664 160 649 160 616L160 -75C160 -108 157 -122 148 -131C136 -141 114 -147 87 -147L49 -147L45 -152L45 -178L51 -184Z" stroke="rgb(255,255,255)" stroke-opacity="1" stroke-width="8" fill="rgb(255,255,255)" fill-opacity="1"></path></g></g><g><g><g><g><g transform="matrix(1,0,0,1,279.24481201171875,135.08231201171876)"><path transform="matrix(0.0119,0,0,-0.0119,0,0)" d="M543 227C543 337 459 353 377 365C434 385 459 397 490 425C536 464 559 511 559 562C559 644 501 692 401 692C399 692 389 692 374 691L311 690C299 689 263 689 251 689C232 689 201 690 152 691L100 692L97 664L150 662C174 661 185 653 185 635C185 621 181 589 176 559L89 55C85 37 73 30 31 23L26 -3L63 -2C90 0 105 0 117 0C128 0 154 -1 180 -2L217 -3L237 -4C256 -5 269 -6 277 -6C392 -6 543 87 543 227ZM166 41L217 340L302 340C405 340 455 298 455 211C455 108 382 34 282 34C228 34 207 38 166 41ZM352 655C433 655 473 619 473 544C473 439 399 376 275 376L223 376L272 650C288 650 329 655 352 655Z" stroke="rgb(255,255,255)" stroke-opacity="1" stroke-width="8" fill="rgb(255,255,255)" fill-opacity="1"></path></g></g></g></g></g><g><g transform="matrix(1,0,0,1,292.61981201171875,132.078125)"><path transform="matrix(0.017,0,0,-0.017,0,0)" d="M604 347L604 406L65 406L65 347ZM604 134L604 193L65 193L65 134Z" stroke="rgb(255,255,255)" stroke-opacity="1" stroke-width="8" fill="rgb(255,255,255)" fill-opacity="1"></path></g></g><g><g transform="matrix(1,0,0,1,309.078125,132.078125)"><path transform="matrix(0.017,0,0,-0.017,0,0)" d="M88 -184C88 -184 182 -183 182 -183C182 -183 282 -184 282 -184L288 -178L288 -152L284 -147L246 -147C219 -147 197 -141 185 -131C176 -122 173 -108 173 -75L173 616C173 649 176 664 185 673C197 683 219 689 246 689L284 689L288 694L288 720L282 726L188 723L88 726C84 717 83 706 83 691C83 665 87 628 87 578L87 -44C87 -112 85 -140 79 -171Z" stroke="rgb(255,255,255)" stroke-opacity="1" stroke-width="8" fill="rgb(255,255,255)" fill-opacity="1"></path></g></g><g><g transform="matrix(1,0,0,1,314.7239990234375,132.078125)"><path transform="matrix(0.017,0,0,-0.017,0,0)" d="M390 646L463 646C541 646 577 641 580 629C583 621 585 602 584 592L580 528L608 528L635 692L544 691C456 690 388 689 353 689C316 689 252 690 166 691L71 692L53 528L82 528L97 588C102 610 109 626 115 633C121 640 159 646 196 646L308 646L222 125C206 34 204 31 164 28L113 25L109 -3L166 -2C206 -1 235 0 251 0C270 0 301 -1 340 -2L384 -3L387 25L328 28C302 29 292 37 292 58C292 67 293 74 296 93Z" stroke="rgb(255,255,255)" stroke-opacity="1" stroke-width="8" fill="rgb(255,255,255)" fill-opacity="1"></path></g></g><g><g transform="matrix(1,0,0,1,325.0989990234375,132.078125)"><path transform="matrix(0.017,0,0,-0.017,0,0)" d="M146 266C146 526 243 632 301 700L282 726C225 675 60 542 60 266C60 159 85 58 133 -32C168 -99 200 -138 282 -215L301 -194C255 -137 146 -15 146 266Z" stroke="rgb(255,255,255)" stroke-opacity="1" stroke-width="8" fill="rgb(255,255,255)" fill-opacity="1"></path></g></g><g><g><g><g><g transform="matrix(1,0,0,1,330.75,132.078125)"><path transform="matrix(0.017,0,0,-0.017,0,0)" d="M9 1C24 -7 40 -11 52 -11C85 -11 124 18 155 65L231 182L242 113C255 28 278 -11 314 -11C336 -11 368 6 400 35L449 79L440 98C404 68 379 53 363 53C348 53 335 63 325 83C316 102 305 139 300 168L282 269L317 318C364 383 391 406 422 406C438 406 450 398 455 383L469 387L484 472C472 479 463 482 454 482C414 482 374 446 312 354L275 299L269 347C257 446 230 482 171 482C145 482 123 474 114 461L56 378L73 368C103 402 123 416 142 416C175 416 197 375 214 277L225 215L185 153C142 86 108 54 80 54C65 54 54 58 52 63L41 91L21 88C21 53 13 27 9 1Z" stroke="rgb(255,255,255)" stroke-opacity="1" stroke-width="8" fill="rgb(255,255,255)" fill-opacity="1"></path></g></g></g></g><svg x="330.74481201171875" overflow="visible" y="113.078125" height="10" width="9.348958969116211"><path d=" M 9.35 4.85 l -3.15 -3.32 l -0.49 0.52 l 1.93 2.33 h -0.15 v 0.90 h 0.15 l -1.93 2.33 l 0.49 0.52 z  M 1.68 5.23 h 7.21 v -0.90 h -7.21 z" style="fill:rgb(255,255,255);fill-opacity:1;stroke-width:1px;stroke:none;stroke-opacity:1;"></path></svg></g><g><g transform="matrix(1,0,0,1,339.24481201171875,132.078125)"><path transform="matrix(0.017,0,0,-0.017,0,0)" d="M51 726L32 700C87 636 187 526 187 266C187 -10 83 -131 32 -194L51 -215C104 -165 273 -23 273 265C273 542 108 675 51 726Z" stroke="rgb(255,255,255)" stroke-opacity="1" stroke-width="8" fill="rgb(255,255,255)" fill-opacity="1"></path></g></g><g><g transform="matrix(1,0,0,1,344.890625,132.078125)"><path transform="matrix(0.017,0,0,-0.017,0,0)" d="M245 -184L254 -171C248 -140 246 -112 246 -44L246 578C246 628 250 665 250 691C250 706 249 717 245 726L51 726L45 720L45 694L49 689L87 689C114 689 136 683 148 673C157 664 160 649 160 616L160 -75C160 -108 157 -122 148 -131C136 -141 114 -147 87 -147L49 -147L45 -152L45 -178L51 -184Z" stroke="rgb(255,255,255)" stroke-opacity="1" stroke-width="8" fill="rgb(255,255,255)" fill-opacity="1"></path></g></g><g><g><g><g><g transform="matrix(1,0,0,1,351.04168701171875,135.08231201171876)"><path transform="matrix(0.0119,0,0,-0.0119,0,0)" d="M45 284C45 90 152 -18 343 -18C439 -18 510 5 600 67C600 67 610 103 610 103C610 103 600 110 600 110C506 53 454 35 376 35C219 35 133 131 133 309C133 447 190 653 418 653C489 653 541 639 597 603L597 519L624 519C629 576 637 619 651 665C575 694 518 706 456 706C276 706 45 578 45 284Z" stroke="rgb(255,255,255)" stroke-opacity="1" stroke-width="8" fill="rgb(255,255,255)" fill-opacity="1"></path></g></g></g></g></g></g></g><g><g><g><g transform="matrix(1,0,0,1,54,58.5)"><path transform="matrix(0.0105,0,0,-0.0105,0,0)" d="M34 216C34 88 133 -11 249 -11C383 -11 415 109 415 119C415 129 405 129 402 129C393 129 391 125 389 119C360 26 295 14 258 14C205 14 117 57 117 218C117 381 199 423 252 423C261 423 324 422 359 386C318 383 312 353 312 340C312 314 330 294 358 294C384 294 404 311 404 341C404 409 328 448 251 448C126 448 34 340 34 216ZM472 214C472 85 576 -11 693 -11C814 -11 915 87 915 214C915 342 815 448 694 448C569 448 472 339 472 214ZM555 222C555 261 555 315 579 359C606 405 653 426 693 426C737 426 780 404 806 361C832 318 832 260 832 222C832 186 832 132 810 88C788 43 744 14 694 14C651 14 607 35 580 81C555 125 555 186 555 222ZM976 0C1011 1 1062 3 1089 3C1115 3 1167 1 1201 0L1201 31C1134 31 1123 31 1123 76L1123 260C1123 364 1194 420 1258 420C1321 420 1332 366 1332 309L1332 76C1332 31 1321 31 1254 31L1254 0C1289 1 1340 3 1367 3C1393 3 1445 1 1479 0L1479 31C1412 31 1401 31 1401 76L1401 260C1401 364 1472 420 1536 420C1599 420 1610 366 1610 309L1610 76C1610 31 1599 31 1532 31L1532 0C1567 1 1618 3 1645 3C1671 3 1723 1 1757 0L1757 31C1705 31 1680 31 1679 61L1679 252C1679 338 1679 369 1648 405C1634 422 1601 442 1543 442C1459 442 1415 382 1398 344C1384 431 1310 442 1265 442C1192 442 1145 399 1117 337L1117 442L976 431L976 400C1046 400 1054 393 1054 344L1054 76C1054 31 1043 31 976 31ZM1805 -163L1805 -194C1839 -193 1891 -191 1917 -191C1944 -191 1995 -193 2030 -194L2030 -163C1963 -163 1952 -163 1952 -118L1952 50L1952 59C1957 43 1999 -11 2075 -11C2194 -11 2298 87 2298 216C2298 343 2201 442 2089 442C2011 442 1969 398 1949 376L1949 442L1805 431L1805 400C1876 400 1883 394 1883 350L1883 -118C1883 -163 1872 -163 1805 -163ZM1952 114L1952 337C1981 388 2030 417 2081 417C2154 417 2215 329 2215 216C2215 95 2145 11 2071 11C2031 11 1993 31 1966 72C1952 93 1952 94 1952 114ZM2364 400C2442 400 2442 397 2442 308L2442 158C2442 80 2442 -11 2594 -11C2650 -11 2694 17 2723 79L2723 -11L2867 0L2867 31C2797 31 2789 38 2789 87L2789 442L2642 431L2642 400C2712 400 2720 393 2720 344L2720 166C2720 79 2672 11 2599 11C2515 11 2511 58 2511 110L2511 442L2364 431ZM2906 400L2991 400L2991 124C2991 1 3084 -11 3120 -11C3191 -11 3219 60 3219 124L3219 181L3194 181L3194 126C3194 52 3164 14 3127 14C3060 14 3060 105 3060 122L3060 400L3203 400L3203 431L3060 431L3060 615L3035 615C3034 533 3004 426 2906 422ZM3303 220C3303 86 3408 -11 3523 -11C3645 -11 3690 100 3690 119C3690 129 3682 131 3677 131C3668 131 3666 125 3664 117C3629 14 3539 14 3529 14C3479 14 3439 44 3416 81C3386 129 3386 195 3386 231L3665 231C3687 231 3690 231 3690 252C3690 351 3636 448 3511 448C3395 448 3303 345 3303 220ZM3387 252C3393 401 3477 426 3511 426C3614 426 3624 291 3624 252Z" stroke="rgb(255,255,255)" stroke-opacity="1" stroke-width="8" fill="rgb(255,255,255)" fill-opacity="1"></path></g></g></g><g><g><g transform="matrix(1,0,0,1,54,73.5)"><path transform="matrix(0.0105,0,0,-0.0105,0,0)" d="M34 216C34 88 133 -11 249 -11C383 -11 415 109 415 119C415 129 405 129 402 129C393 129 391 125 389 119C360 26 295 14 258 14C205 14 117 57 117 218C117 381 199 423 252 423C261 423 324 422 359 386C318 383 312 353 312 340C312 314 330 294 358 294C384 294 404 311 404 341C404 409 328 448 251 448C126 448 34 340 34 216ZM472 214C472 85 576 -11 693 -11C814 -11 915 87 915 214C915 342 815 448 694 448C569 448 472 339 472 214ZM555 222C555 261 555 315 579 359C606 405 653 426 693 426C737 426 780 404 806 361C832 318 832 260 832 222C832 186 832 132 810 88C788 43 744 14 694 14C651 14 607 35 580 81C555 125 555 186 555 222ZM1000 214C1000 85 1104 -11 1221 -11C1342 -11 1443 87 1443 214C1443 342 1343 448 1222 448C1097 448 1000 339 1000 214ZM1083 222C1083 261 1083 315 1107 359C1134 405 1181 426 1221 426C1265 426 1308 404 1334 361C1360 318 1360 260 1360 222C1360 186 1360 132 1338 88C1316 43 1272 14 1222 14C1179 14 1135 35 1108 81C1083 125 1083 186 1083 222ZM1500 0C1539 1 1586 3 1614 3C1654 3 1701 3 1741 0L1741 31L1720 31C1646 31 1644 42 1644 78L1644 232C1644 331 1686 420 1762 420C1769 420 1771 420 1773 419C1770 418 1750 406 1750 380C1750 352 1771 337 1793 337C1811 337 1836 349 1836 381C1836 413 1805 442 1762 442C1689 442 1653 375 1639 332L1639 442L1500 431L1500 400C1570 400 1578 393 1578 344L1578 76C1578 31 1567 31 1500 31ZM1897 215C1897 88 1995 -11 2109 -11C2173 -11 2218 23 2243 55L2243 -11L2390 0L2390 31C2320 31 2312 38 2312 87L2312 694L2168 683L2168 652C2238 652 2246 645 2246 596L2246 380C2217 416 2174 442 2120 442C2002 442 1897 344 1897 215ZM1980 214C1980 251 1982 311 2011 356C2032 387 2070 420 2124 420C2159 420 2201 405 2232 360C2243 343 2243 341 2243 323L2243 118C2243 100 2243 98 2232 81C2202 33 2157 11 2114 11C2069 11 2033 37 2009 75C1983 116 1980 173 1980 214ZM2493 616C2493 589 2515 563 2546 563C2574 563 2599 584 2599 616C2599 648 2574 669 2546 669C2515 669 2493 642 2493 616ZM2451 0C2483 1 2537 3 2561 3C2596 3 2631 1 2665 0L2665 31C2599 31 2595 36 2595 75L2595 442L2455 431L2455 400C2520 400 2529 394 2529 345L2529 76C2529 31 2518 31 2451 31ZM2727 0C2762 1 2813 3 2840 3C2866 3 2918 1 2952 0L2952 31C2885 31 2874 31 2874 76L2874 260C2874 364 2945 420 3009 420C3072 420 3083 366 3083 309L3083 76C3083 31 3072 31 3005 31L3005 0C3040 1 3091 3 3118 3C3144 3 3196 1 3230 0L3230 31C3178 31 3153 31 3152 61L3152 252C3152 338 3152 369 3121 405C3107 422 3074 442 3016 442C2943 442 2896 399 2868 337L2868 442L2727 431L2727 400C2797 400 2805 393 2805 344L2805 76C2805 31 2794 31 2727 31ZM3292 95C3292 14 3389 -11 3452 -11C3518 -11 3564 29 3583 76C3587 36 3614 -6 3661 -6C3682 -6 3743 8 3743 89L3743 145L3718 145L3718 89C3718 31 3693 25 3682 25C3649 25 3645 70 3645 75L3645 275C3645 317 3645 356 3609 393C3570 432 3520 448 3472 448C3390 448 3321 401 3321 335C3321 305 3341 288 3367 288C3395 288 3413 308 3413 334C3413 346 3408 379 3362 380C3389 415 3438 426 3470 426C3519 426 3576 387 3576 298L3576 261C3525 258 3455 255 3392 225C3317 191 3292 139 3292 95ZM3369 96C3369 151 3411 234 3576 240L3576 140C3576 45 3504 11 3459 11C3410 11 3369 46 3369 96ZM3769 400L3854 400L3854 124C3854 1 3947 -11 3983 -11C4054 -11 4082 60 4082 124L4082 181L4057 181L4057 126C4057 52 4027 14 3990 14C3923 14 3923 105 3923 122L3923 400L4066 400L4066 431L3923 431L3923 615L3898 615C3897 533 3867 426 3769 422ZM4166 220C4166 86 4271 -11 4386 -11C4508 -11 4553 100 4553 119C4553 129 4545 131 4540 131C4531 131 4529 125 4527 117C4492 14 4402 14 4392 14C4342 14 4302 44 4279 81C4249 129 4249 195 4249 231L4528 231C4550 231 4553 231 4553 252C4553 351 4499 448 4374 448C4258 448 4166 345 4166 220ZM4250 252C4256 401 4340 426 4374 426C4477 426 4487 291 4487 252ZM4615 13C4615 -4 4615 -11 4626 -11C4631 -11 4632 -10 4651 9C4653 11 4653 13 4671 32C4715 -10 4760 -11 4781 -11C4896 -11 4942 56 4942 128C4942 181 4912 211 4900 223C4867 255 4828 263 4786 271C4730 282 4663 295 4663 353C4663 388 4689 429 4775 429C4885 429 4890 339 4892 308C4893 299 4902 299 4904 299C4917 299 4917 304 4917 323L4917 424C4917 441 4917 448 4906 448C4901 448 4899 448 4886 436C4883 432 4873 423 4869 420C4831 448 4790 448 4775 448C4653 448 4615 381 4615 325C4615 290 4631 262 4658 240C4690 214 4718 208 4790 194C4812 190 4894 174 4894 102C4894 51 4859 11 4781 11C4697 11 4661 68 4642 153C4639 166 4638 170 4628 170C4615 170 4615 163 4615 145Z" stroke="rgb(255,255,255)" stroke-opacity="1" stroke-width="8" fill="rgb(255,255,255)" fill-opacity="1"></path></g></g></g><g><g><g transform="matrix(1,0,0,1,54,88.5)"><path transform="matrix(0.0105,0,0,-0.0105,0,0)" d="M75 616C75 589 97 563 128 563C156 563 181 584 181 616C181 648 156 669 128 669C97 669 75 642 75 616ZM33 0C65 1 119 3 143 3C178 3 213 1 247 0L247 31C181 31 177 36 177 75L177 442L37 431L37 400C102 400 111 394 111 345L111 76C111 31 100 31 33 31ZM309 0C344 1 395 3 422 3C448 3 500 1 534 0L534 31C467 31 456 31 456 76L456 260C456 364 527 420 591 420C654 420 665 366 665 309L665 76C665 31 654 31 587 31L587 0C622 1 673 3 700 3C726 3 778 1 812 0L812 31C760 31 735 31 734 61L734 252C734 338 734 369 703 405C689 422 656 442 598 442C525 442 478 399 450 337L450 442L309 431L309 400C379 400 387 393 387 344L387 76C387 31 376 31 309 31ZM1193 652C1263 652 1271 645 1271 596L1271 0L1296 0C1297 1 1305 15 1332 62C1347 39 1389 -11 1463 -11C1582 -11 1686 87 1686 216C1686 343 1588 442 1474 442C1396 442 1353 395 1337 377L1337 694L1193 683ZM1340 114L1340 320C1340 339 1340 340 1351 356C1390 412 1445 420 1469 420C1514 420 1550 394 1574 356C1600 315 1603 258 1603 217C1603 180 1601 120 1572 75C1551 44 1513 11 1459 11C1414 11 1378 35 1354 72C1340 93 1340 96 1340 114ZM1762 95C1762 14 1859 -11 1922 -11C1988 -11 2034 29 2053 76C2057 36 2084 -6 2131 -6C2152 -6 2213 8 2213 89L2213 145L2188 145L2188 89C2188 31 2163 25 2152 25C2119 25 2115 70 2115 75L2115 275C2115 317 2115 356 2079 393C2040 432 1990 448 1942 448C1860 448 1791 401 1791 335C1791 305 1811 288 1837 288C1865 288 1883 308 1883 334C1883 346 1878 379 1832 380C1859 415 1908 426 1940 426C1989 426 2046 387 2046 298L2046 261C1995 258 1925 255 1862 225C1787 191 1762 139 1762 95ZM1839 96C1839 151 1881 234 2046 240L2046 140C2046 45 1974 11 1929 11C1880 11 1839 46 1839 96ZM2253 13C2253 -4 2253 -11 2264 -11C2269 -11 2270 -10 2289 9C2291 11 2291 13 2309 32C2353 -10 2398 -11 2419 -11C2534 -11 2580 56 2580 128C2580 181 2550 211 2538 223C2505 255 2466 263 2424 271C2368 282 2301 295 2301 353C2301 388 2327 429 2413 429C2523 429 2528 339 2530 308C2531 299 2540 299 2542 299C2555 299 2555 304 2555 323L2555 424C2555 441 2555 448 2544 448C2539 448 2537 448 2524 436C2521 432 2511 423 2507 420C2469 448 2428 448 2413 448C2291 448 2253 381 2253 325C2253 290 2269 262 2296 240C2328 214 2356 208 2428 194C2450 190 2532 174 2532 102C2532 51 2497 11 2419 11C2335 11 2299 68 2280 153C2277 166 2276 170 2266 170C2253 170 2253 163 2253 145ZM2689 616C2689 589 2711 563 2742 563C2770 563 2795 584 2795 616C2795 648 2770 669 2742 669C2711 669 2689 642 2689 616ZM2647 0C2679 1 2733 3 2757 3C2792 3 2827 1 2861 0L2861 31C2795 31 2791 36 2791 75L2791 442L2651 431L2651 400C2716 400 2725 394 2725 345L2725 76C2725 31 2714 31 2647 31ZM2924 13C2924 -4 2924 -11 2935 -11C2940 -11 2941 -10 2960 9C2962 11 2962 13 2980 32C3024 -10 3069 -11 3090 -11C3205 -11 3251 56 3251 128C3251 181 3221 211 3209 223C3176 255 3137 263 3095 271C3039 282 2972 295 2972 353C2972 388 2998 429 3084 429C3194 429 3199 339 3201 308C3202 299 3211 299 3213 299C3226 299 3226 304 3226 323L3226 424C3226 441 3226 448 3215 448C3210 448 3208 448 3195 436C3192 432 3182 423 3178 420C3140 448 3099 448 3084 448C2962 448 2924 381 2924 325C2924 290 2940 262 2967 240C2999 214 3027 208 3099 194C3121 190 3203 174 3203 102C3203 51 3168 11 3090 11C3006 11 2970 68 2951 153C2948 166 2947 170 2937 170C2924 170 2924 163 2924 145Z" stroke="rgb(255,255,255)" stroke-opacity="1" stroke-width="8" fill="rgb(255,255,255)" fill-opacity="1"></path></g></g><g><g><g><g><g transform="matrix(1,0,0,1,91.98959350585938,88.5666717529297)"><path transform="matrix(0.0119,0,0,-0.0119,0,0)" d="M543 227C543 337 459 353 377 365C434 385 459 397 490 425C536 464 559 511 559 562C559 644 501 692 401 692C399 692 389 692 374 691L311 690C299 689 263 689 251 689C232 689 201 690 152 691L100 692L97 664L150 662C174 661 185 653 185 635C185 621 181 589 176 559L89 55C85 37 73 30 31 23L26 -3L63 -2C90 0 105 0 117 0C128 0 154 -1 180 -2L217 -3L237 -4C256 -5 269 -6 277 -6C392 -6 543 87 543 227ZM166 41L217 340L302 340C405 340 455 298 455 211C455 108 382 34 282 34C228 34 207 38 166 41ZM352 655C433 655 473 619 473 544C473 439 399 376 275 376L223 376L272 650C288 650 329 655 352 655Z" stroke="rgb(255,255,255)" stroke-opacity="1" stroke-width="8" fill="rgb(255,255,255)" fill-opacity="1"></path></g></g></g></g></g></g></g><g><g><g><g transform="matrix(1,0,0,1,70,134.5)"><path transform="matrix(0.0105,0,0,-0.0105,0,0)" d="M32 0C67 1 118 3 145 3C171 3 223 1 257 0L257 31C190 31 179 31 179 76L179 260C179 364 250 420 314 420C377 420 388 366 388 309L388 76C388 31 377 31 310 31L310 0C345 1 396 3 423 3C449 3 501 1 535 0L535 31C468 31 457 31 457 76L457 260C457 364 528 420 592 420C655 420 666 366 666 309L666 76C666 31 655 31 588 31L588 0C623 1 674 3 701 3C727 3 779 1 813 0L813 31C761 31 736 31 735 61L735 252C735 338 735 369 704 405C690 422 657 442 599 442C515 442 471 382 454 344C440 431 366 442 321 442C248 442 201 399 173 337L173 442L32 431L32 400C102 400 110 393 110 344L110 76C110 31 99 31 32 31ZM875 95C875 14 972 -11 1035 -11C1101 -11 1147 29 1166 76C1170 36 1197 -6 1244 -6C1265 -6 1326 8 1326 89L1326 145L1301 145L1301 89C1301 31 1276 25 1265 25C1232 25 1228 70 1228 75L1228 275C1228 317 1228 356 1192 393C1153 432 1103 448 1055 448C973 448 904 401 904 335C904 305 924 288 950 288C978 288 996 308 996 334C996 346 991 379 945 380C972 415 1021 426 1053 426C1102 426 1159 387 1159 298L1159 261C1108 258 1038 255 975 225C900 191 875 139 875 95ZM952 96C952 151 994 234 1159 240L1159 140C1159 45 1087 11 1042 11C993 11 952 46 952 96ZM1352 400L1437 400L1437 124C1437 1 1530 -11 1566 -11C1637 -11 1665 60 1665 124L1665 181L1640 181L1640 126C1640 52 1610 14 1573 14C1506 14 1506 105 1506 122L1506 400L1649 400L1649 431L1506 431L1506 615L1481 615C1480 533 1450 426 1352 422ZM1749 0C1788 1 1835 3 1863 3C1903 3 1950 3 1990 0L1990 31L1969 31C1895 31 1893 42 1893 78L1893 232C1893 331 1935 420 2011 420C2018 420 2020 420 2022 419C2019 418 1999 406 1999 380C1999 352 2020 337 2042 337C2060 337 2085 349 2085 381C2085 413 2054 442 2011 442C1938 442 1902 375 1888 332L1888 442L1749 431L1749 400C1819 400 1827 393 1827 344L1827 76C1827 31 1816 31 1749 31ZM2187 616C2187 589 2209 563 2240 563C2268 563 2293 584 2293 616C2293 648 2268 669 2240 669C2209 669 2187 642 2187 616ZM2145 0C2177 1 2231 3 2255 3C2290 3 2325 1 2359 0L2359 31C2293 31 2289 36 2289 75L2289 442L2149 431L2149 400C2214 400 2223 394 2223 345L2223 76C2223 31 2212 31 2145 31ZM2401 0C2427 2 2458 3 2484 3C2513 3 2555 1 2579 0L2579 31C2557 34 2550 47 2550 62C2550 84 2579 117 2640 189L2716 89C2724 78 2737 62 2737 56C2737 47 2728 32 2701 31L2701 0C2731 1 2787 3 2809 3C2836 3 2875 2 2905 0L2905 31C2851 31 2833 33 2810 62L2676 235C2706 273 2744 322 2768 348C2799 384 2840 399 2887 400L2887 431C2861 429 2831 428 2805 428C2775 428 2722 430 2709 431L2709 400C2730 398 2738 385 2738 369C2738 353 2728 340 2723 334L2661 256L2583 357C2574 367 2574 369 2574 375C2574 390 2589 399 2609 400L2609 431C2583 430 2517 428 2501 428C2480 428 2433 429 2406 431L2406 400C2476 400 2477 399 2524 339L2623 210L2529 91C2481 33 2422 31 2401 31ZM2926 186L3192 186L3192 245L2926 245ZM3268 400C3331 400 3335 394 3348 363L3492 8C3498 -6 3500 -11 3513 -11C3526 -11 3530 -2 3534 8L3665 333C3674 356 3691 399 3757 400L3757 431C3734 429 3705 428 3682 428C3658 428 3612 430 3595 431L3595 400C3632 399 3643 376 3643 357C3643 348 3641 344 3637 333L3535 78L3423 357C3417 370 3417 372 3417 374C3417 400 3456 400 3474 400L3474 431C3444 430 3388 428 3365 428C3338 428 3298 429 3268 431ZM3776 220C3776 86 3881 -11 3996 -11C4118 -11 4163 100 4163 119C4163 129 4155 131 4150 131C4141 131 4139 125 4137 117C4102 14 4012 14 4002 14C3952 14 3912 44 3889 81C3859 129 3859 195 3859 231L4138 231C4160 231 4163 231 4163 252C4163 351 4109 448 3984 448C3868 448 3776 345 3776 220ZM3860 252C3866 401 3950 426 3984 426C4087 426 4097 291 4097 252ZM4226 216C4226 88 4325 -11 4441 -11C4575 -11 4607 109 4607 119C4607 129 4597 129 4594 129C4585 129 4583 125 4581 119C4552 26 4487 14 4450 14C4397 14 4309 57 4309 218C4309 381 4391 423 4444 423C4453 423 4516 422 4551 386C4510 383 4504 353 4504 340C4504 314 4522 294 4550 294C4576 294 4596 311 4596 341C4596 409 4520 448 4443 448C4318 448 4226 340 4226 216ZM4655 400L4740 400L4740 124C4740 1 4833 -11 4869 -11C4940 -11 4968 60 4968 124L4968 181L4943 181L4943 126C4943 52 4913 14 4876 14C4809 14 4809 105 4809 122L4809 400L4952 400L4952 431L4809 431L4809 615L4784 615C4783 533 4753 426 4655 422ZM5052 214C5052 85 5156 -11 5273 -11C5394 -11 5495 87 5495 214C5495 342 5395 448 5274 448C5149 448 5052 339 5052 214ZM5135 222C5135 261 5135 315 5159 359C5186 405 5233 426 5273 426C5317 426 5360 404 5386 361C5412 318 5412 260 5412 222C5412 186 5412 132 5390 88C5368 43 5324 14 5274 14C5231 14 5187 35 5160 81C5135 125 5135 186 5135 222ZM5552 0C5591 1 5638 3 5666 3C5706 3 5753 3 5793 0L5793 31L5772 31C5698 31 5696 42 5696 78L5696 232C5696 331 5738 420 5814 420C5821 420 5823 420 5825 419C5822 418 5802 406 5802 380C5802 352 5823 337 5845 337C5863 337 5888 349 5888 381C5888 413 5857 442 5814 442C5741 442 5705 375 5691 332L5691 442L5552 431L5552 400C5622 400 5630 393 5630 344L5630 76C5630 31 5619 31 5552 31ZM6280 0C6315 1 6366 3 6393 3C6419 3 6471 1 6505 0L6505 31C6438 31 6427 31 6427 76L6427 260C6427 364 6498 420 6562 420C6625 420 6636 366 6636 309L6636 76C6636 31 6625 31 6558 31L6558 0C6593 1 6644 3 6671 3C6697 3 6749 1 6783 0L6783 31C6716 31 6705 31 6705 76L6705 260C6705 364 6776 420 6840 420C6903 420 6914 366 6914 309L6914 76C6914 31 6903 31 6836 31L6836 0C6871 1 6922 3 6949 3C6975 3 7027 1 7061 0L7061 31C7009 31 6984 31 6983 61L6983 252C6983 338 6983 369 6952 405C6938 422 6905 442 6847 442C6763 442 6719 382 6702 344C6688 431 6614 442 6569 442C6496 442 6449 399 6421 337L6421 442L6280 431L6280 400C6350 400 6358 393 6358 344L6358 76C6358 31 6347 31 6280 31ZM7085 400C7163 400 7163 397 7163 308L7163 158C7163 80 7163 -11 7315 -11C7371 -11 7415 17 7444 79L7444 -11L7588 0L7588 31C7518 31 7510 38 7510 87L7510 442L7363 431L7363 400C7433 400 7441 393 7441 344L7441 166C7441 79 7393 11 7320 11C7236 11 7232 58 7232 110L7232 442L7085 431ZM7641 0C7674 1 7727 3 7752 3C7777 3 7826 1 7863 0L7863 31C7796 31 7785 31 7785 76L7785 694L7641 683L7641 652C7711 652 7719 645 7719 596L7719 76C7719 31 7708 31 7641 31ZM7904 400L7989 400L7989 124C7989 1 8082 -11 8118 -11C8189 -11 8217 60 8217 124L8217 181L8192 181L8192 126C8192 52 8162 14 8125 14C8058 14 8058 105 8058 122L8058 400L8201 400L8201 431L8058 431L8058 615L8033 615C8032 533 8002 426 7904 422ZM8348 616C8348 589 8370 563 8401 563C8429 563 8454 584 8454 616C8454 648 8429 669 8401 669C8370 669 8348 642 8348 616ZM8306 0C8338 1 8392 3 8416 3C8451 3 8486 1 8520 0L8520 31C8454 31 8450 36 8450 75L8450 442L8310 431L8310 400C8375 400 8384 394 8384 345L8384 76C8384 31 8373 31 8306 31ZM8578 -163L8578 -194C8612 -193 8664 -191 8690 -191C8717 -191 8768 -193 8803 -194L8803 -163C8736 -163 8725 -163 8725 -118L8725 50L8725 59C8730 43 8772 -11 8848 -11C8967 -11 9071 87 9071 216C9071 343 8974 442 8862 442C8784 442 8742 398 8722 376L8722 442L8578 431L8578 400C8649 400 8656 394 8656 350L8656 -118C8656 -163 8645 -163 8578 -163ZM8725 114L8725 337C8754 388 8803 417 8854 417C8927 417 8988 329 8988 216C8988 95 8918 11 8844 11C8804 11 8766 31 8739 72C8725 93 8725 94 8725 114ZM9138 0C9171 1 9224 3 9249 3C9274 3 9323 1 9360 0L9360 31C9293 31 9282 31 9282 76L9282 694L9138 683L9138 652C9208 652 9216 645 9216 596L9216 76C9216 31 9205 31 9138 31ZM9457 616C9457 589 9479 563 9510 563C9538 563 9563 584 9563 616C9563 648 9538 669 9510 669C9479 669 9457 642 9457 616ZM9415 0C9447 1 9501 3 9525 3C9560 3 9595 1 9629 0L9629 31C9563 31 9559 36 9559 75L9559 442L9419 431L9419 400C9484 400 9493 394 9493 345L9493 76C9493 31 9482 31 9415 31ZM9693 216C9693 88 9792 -11 9908 -11C10042 -11 10074 109 10074 119C10074 129 10064 129 10061 129C10052 129 10050 125 10048 119C10019 26 9954 14 9917 14C9864 14 9776 57 9776 218C9776 381 9858 423 9911 423C9920 423 9983 422 10018 386C9977 383 9971 353 9971 340C9971 314 9989 294 10017 294C10043 294 10063 311 10063 341C10063 409 9987 448 9910 448C9785 448 9693 340 9693 216ZM10145 95C10145 14 10242 -11 10305 -11C10371 -11 10417 29 10436 76C10440 36 10467 -6 10514 -6C10535 -6 10596 8 10596 89L10596 145L10571 145L10571 89C10571 31 10546 25 10535 25C10502 25 10498 70 10498 75L10498 275C10498 317 10498 356 10462 393C10423 432 10373 448 10325 448C10243 448 10174 401 10174 335C10174 305 10194 288 10220 288C10248 288 10266 308 10266 334C10266 346 10261 379 10215 380C10242 415 10291 426 10323 426C10372 426 10429 387 10429 298L10429 261C10378 258 10308 255 10245 225C10170 191 10145 139 10145 95ZM10222 96C10222 151 10264 234 10429 240L10429 140C10429 45 10357 11 10312 11C10263 11 10222 46 10222 96ZM10622 400L10707 400L10707 124C10707 1 10800 -11 10836 -11C10907 -11 10935 60 10935 124L10935 181L10910 181L10910 126C10910 52 10880 14 10843 14C10776 14 10776 105 10776 122L10776 400L10919 400L10919 431L10776 431L10776 615L10751 615C10750 533 10720 426 10622 422ZM11066 616C11066 589 11088 563 11119 563C11147 563 11172 584 11172 616C11172 648 11147 669 11119 669C11088 669 11066 642 11066 616ZM11024 0C11056 1 11110 3 11134 3C11169 3 11204 1 11238 0L11238 31C11172 31 11168 36 11168 75L11168 442L11028 431L11028 400C11093 400 11102 394 11102 345L11102 76C11102 31 11091 31 11024 31ZM11296 214C11296 85 11400 -11 11517 -11C11638 -11 11739 87 11739 214C11739 342 11639 448 11518 448C11393 448 11296 339 11296 214ZM11379 222C11379 261 11379 315 11403 359C11430 405 11477 426 11517 426C11561 426 11604 404 11630 361C11656 318 11656 260 11656 222C11656 186 11656 132 11634 88C11612 43 11568 14 11518 14C11475 14 11431 35 11404 81C11379 125 11379 186 11379 222ZM11800 0C11835 1 11886 3 11913 3C11939 3 11991 1 12025 0L12025 31C11958 31 11947 31 11947 76L11947 260C11947 364 12018 420 12082 420C12145 420 12156 366 12156 309L12156 76C12156 31 12145 31 12078 31L12078 0C12113 1 12164 3 12191 3C12217 3 12269 1 12303 0L12303 31C12251 31 12226 31 12225 61L12225 252C12225 338 12225 369 12194 405C12180 422 12147 442 12089 442C12016 442 11969 399 11941 337L11941 442L11800 431L11800 400C11870 400 11878 393 11878 344L11878 76C11878 31 11867 31 11800 31Z" stroke="rgb(255,255,255)" stroke-opacity="1" stroke-width="8" fill="rgb(255,255,255)" fill-opacity="1"></path></g></g></g></g><g><g><g><g transform="matrix(1,0,0,1,75,17.5)"><path transform="matrix(0.0105,0,0,-0.0105,0,0)" d="M42 95C42 14 139 -11 202 -11C268 -11 314 29 333 76C337 36 364 -6 411 -6C432 -6 493 8 493 89L493 145L468 145L468 89C468 31 443 25 432 25C399 25 395 70 395 75L395 275C395 317 395 356 359 393C320 432 270 448 222 448C140 448 71 401 71 335C71 305 91 288 117 288C145 288 163 308 163 334C163 346 158 379 112 380C139 415 188 426 220 426C269 426 326 387 326 298L326 261C275 258 205 255 142 225C67 191 42 139 42 95ZM119 96C119 151 161 234 326 240L326 140C326 45 254 11 209 11C160 11 119 46 119 96ZM528 -163L528 -194C562 -193 614 -191 640 -191C667 -191 718 -193 753 -194L753 -163C686 -163 675 -163 675 -118L675 50L675 59C680 43 722 -11 798 -11C917 -11 1021 87 1021 216C1021 343 924 442 812 442C734 442 692 398 672 376L672 442L528 431L528 400C599 400 606 394 606 350L606 -118C606 -163 595 -163 528 -163ZM675 114L675 337C704 388 753 417 804 417C877 417 938 329 938 216C938 95 868 11 794 11C754 11 716 31 689 72C675 93 675 94 675 114ZM1083 -163L1083 -194C1117 -193 1169 -191 1195 -191C1222 -191 1273 -193 1308 -194L1308 -163C1241 -163 1230 -163 1230 -118L1230 50L1230 59C1235 43 1277 -11 1353 -11C1472 -11 1576 87 1576 216C1576 343 1479 442 1367 442C1289 442 1247 398 1227 376L1227 442L1083 431L1083 400C1154 400 1161 394 1161 350L1161 -118C1161 -163 1150 -163 1083 -163ZM1230 114L1230 337C1259 388 1308 417 1359 417C1432 417 1493 329 1493 216C1493 95 1423 11 1349 11C1309 11 1271 31 1244 72C1230 93 1230 94 1230 114ZM1643 0C1676 1 1729 3 1754 3C1779 3 1828 1 1865 0L1865 31C1798 31 1787 31 1787 76L1787 694L1643 683L1643 652C1713 652 1721 645 1721 596L1721 76C1721 31 1710 31 1643 31ZM1906 -124C1906 -169 1948 -205 1998 -205C2061 -205 2102 -148 2126 -91L2302 336C2328 399 2379 400 2395 400L2395 431C2372 429 2343 428 2320 428C2302 428 2255 430 2233 431L2233 400C2264 399 2280 382 2280 357C2280 347 2279 345 2274 333L2173 87L2062 356C2058 366 2056 370 2056 374C2056 400 2093 400 2112 400L2112 431C2086 430 2020 428 2003 428C1976 428 1936 429 1906 431L1906 400C1954 400 1973 400 1987 365L2137 0C2132 -13 2118 -46 2112 -59C2090 -114 2062 -183 1998 -183C1993 -183 1970 -183 1951 -165C1982 -161 1990 -139 1990 -123C1990 -97 1971 -81 1948 -81C1928 -81 1906 -94 1906 -124ZM2789 95C2789 14 2886 -11 2949 -11C3015 -11 3061 29 3080 76C3084 36 3111 -6 3158 -6C3179 -6 3240 8 3240 89L3240 145L3215 145L3215 89C3215 31 3190 25 3179 25C3146 25 3142 70 3142 75L3142 275C3142 317 3142 356 3106 393C3067 432 3017 448 2969 448C2887 448 2818 401 2818 335C2818 305 2838 288 2864 288C2892 288 2910 308 2910 334C2910 346 2905 379 2859 380C2886 415 2935 426 2967 426C3016 426 3073 387 3073 298L3073 261C3022 258 2952 255 2889 225C2814 191 2789 139 2789 95ZM2866 96C2866 151 2908 234 3073 240L3073 140C3073 45 3001 11 2956 11C2907 11 2866 46 2866 96ZM3275 652C3345 652 3353 645 3353 596L3353 0L3378 0C3379 1 3387 15 3414 62C3429 39 3471 -11 3545 -11C3664 -11 3768 87 3768 216C3768 343 3670 442 3556 442C3478 442 3435 395 3419 377L3419 694L3275 683ZM3422 114L3422 320C3422 339 3422 340 3433 356C3472 412 3527 420 3551 420C3596 420 3632 394 3656 356C3682 315 3685 258 3685 217C3685 180 3683 120 3654 75C3633 44 3595 11 3541 11C3496 11 3460 35 3436 72C3422 93 3422 96 3422 114ZM3835 13C3835 -4 3835 -11 3846 -11C3851 -11 3852 -10 3871 9C3873 11 3873 13 3891 32C3935 -10 3980 -11 4001 -11C4116 -11 4162 56 4162 128C4162 181 4132 211 4120 223C4087 255 4048 263 4006 271C3950 282 3883 295 3883 353C3883 388 3909 429 3995 429C4105 429 4110 339 4112 308C4113 299 4122 299 4124 299C4137 299 4137 304 4137 323L4137 424C4137 441 4137 448 4126 448C4121 448 4119 448 4106 436C4103 432 4093 423 4089 420C4051 448 4010 448 3995 448C3873 448 3835 381 3835 325C3835 290 3851 262 3878 240C3910 214 3938 208 4010 194C4032 190 4114 174 4114 102C4114 51 4079 11 4001 11C3917 11 3881 68 3862 153C3859 166 3858 170 3848 170C3835 170 3835 163 3835 145ZM4215 400L4300 400L4300 124C4300 1 4393 -11 4429 -11C4500 -11 4528 60 4528 124L4528 181L4503 181L4503 126C4503 52 4473 14 4436 14C4369 14 4369 105 4369 122L4369 400L4512 400L4512 431L4369 431L4369 615L4344 615C4343 533 4313 426 4215 422ZM4612 0C4651 1 4698 3 4726 3C4766 3 4813 3 4853 0L4853 31L4832 31C4758 31 4756 42 4756 78L4756 232C4756 331 4798 420 4874 420C4881 420 4883 420 4885 419C4882 418 4862 406 4862 380C4862 352 4883 337 4905 337C4923 337 4948 349 4948 381C4948 413 4917 442 4874 442C4801 442 4765 375 4751 332L4751 442L4612 431L4612 400C4682 400 4690 393 4690 344L4690 76C4690 31 4679 31 4612 31ZM5017 95C5017 14 5114 -11 5177 -11C5243 -11 5289 29 5308 76C5312 36 5339 -6 5386 -6C5407 -6 5468 8 5468 89L5468 145L5443 145L5443 89C5443 31 5418 25 5407 25C5374 25 5370 70 5370 75L5370 275C5370 317 5370 356 5334 393C5295 432 5245 448 5197 448C5115 448 5046 401 5046 335C5046 305 5066 288 5092 288C5120 288 5138 308 5138 334C5138 346 5133 379 5087 380C5114 415 5163 426 5195 426C5244 426 5301 387 5301 298L5301 261C5250 258 5180 255 5117 225C5042 191 5017 139 5017 95ZM5094 96C5094 151 5136 234 5301 240L5301 140C5301 45 5229 11 5184 11C5135 11 5094 46 5094 96ZM5509 216C5509 88 5608 -11 5724 -11C5858 -11 5890 109 5890 119C5890 129 5880 129 5877 129C5868 129 5866 125 5864 119C5835 26 5770 14 5733 14C5680 14 5592 57 5592 218C5592 381 5674 423 5727 423C5736 423 5799 422 5834 386C5793 383 5787 353 5787 340C5787 314 5805 294 5833 294C5859 294 5879 311 5879 341C5879 409 5803 448 5726 448C5601 448 5509 340 5509 216ZM5938 400L6023 400L6023 124C6023 1 6116 -11 6152 -11C6223 -11 6251 60 6251 124L6251 181L6226 181L6226 126C6226 52 6196 14 6159 14C6092 14 6092 105 6092 122L6092 400L6235 400L6235 431L6092 431L6092 615L6067 615C6066 533 6036 426 5938 422ZM6673 0C6706 1 6759 3 6784 3C6809 3 6858 1 6895 0L6895 31C6828 31 6817 31 6817 76L6817 694L6673 683L6673 652C6743 652 6751 645 6751 596L6751 76C6751 31 6740 31 6673 31ZM6992 616C6992 589 7014 563 7045 563C7073 563 7098 584 7098 616C7098 648 7073 669 7045 669C7014 669 6992 642 6992 616ZM6950 0C6982 1 7036 3 7060 3C7095 3 7130 1 7164 0L7164 31C7098 31 7094 36 7094 75L7094 442L6954 431L6954 400C7019 400 7028 394 7028 345L7028 76C7028 31 7017 31 6950 31ZM7226 0C7261 1 7312 3 7339 3C7365 3 7417 1 7451 0L7451 31C7384 31 7373 31 7373 76L7373 260C7373 364 7444 420 7508 420C7571 420 7582 366 7582 309L7582 76C7582 31 7571 31 7504 31L7504 0C7539 1 7590 3 7617 3C7643 3 7695 1 7729 0L7729 31C7677 31 7652 31 7651 61L7651 252C7651 338 7651 369 7620 405C7606 422 7573 442 7515 442C7442 442 7395 399 7367 337L7367 442L7226 431L7226 400C7296 400 7304 393 7304 344L7304 76C7304 31 7293 31 7226 31ZM7777 220C7777 86 7882 -11 7997 -11C8119 -11 8164 100 8164 119C8164 129 8156 131 8151 131C8142 131 8140 125 8138 117C8103 14 8013 14 8003 14C7953 14 7913 44 7890 81C7860 129 7860 195 7860 231L8139 231C8161 231 8164 231 8164 252C8164 351 8110 448 7985 448C7869 448 7777 345 7777 220ZM7861 252C7867 401 7951 426 7985 426C8088 426 8098 291 8098 252ZM8235 95C8235 14 8332 -11 8395 -11C8461 -11 8507 29 8526 76C8530 36 8557 -6 8604 -6C8625 -6 8686 8 8686 89L8686 145L8661 145L8661 89C8661 31 8636 25 8625 25C8592 25 8588 70 8588 75L8588 275C8588 317 8588 356 8552 393C8513 432 8463 448 8415 448C8333 448 8264 401 8264 335C8264 305 8284 288 8310 288C8338 288 8356 308 8356 334C8356 346 8351 379 8305 380C8332 415 8381 426 8413 426C8462 426 8519 387 8519 298L8519 261C8468 258 8398 255 8335 225C8260 191 8235 139 8235 95ZM8312 96C8312 151 8354 234 8519 240L8519 140C8519 45 8447 11 8402 11C8353 11 8312 46 8312 96ZM8721 0C8760 1 8807 3 8835 3C8875 3 8922 3 8962 0L8962 31L8941 31C8867 31 8865 42 8865 78L8865 232C8865 331 8907 420 8983 420C8990 420 8992 420 8994 419C8991 418 8971 406 8971 380C8971 352 8992 337 9014 337C9032 337 9057 349 9057 381C9057 413 9026 442 8983 442C8910 442 8874 375 8860 332L8860 442L8721 431L8721 400C8791 400 8799 393 8799 344L8799 76C8799 31 8788 31 8721 31ZM9436 400L9521 400L9521 124C9521 1 9614 -11 9650 -11C9721 -11 9749 60 9749 124L9749 181L9724 181L9724 126C9724 52 9694 14 9657 14C9590 14 9590 105 9590 122L9590 400L9733 400L9733 431L9590 431L9590 615L9565 615C9564 533 9534 426 9436 422ZM9833 0C9872 1 9919 3 9947 3C9987 3 10034 3 10074 0L10074 31L10053 31C9979 31 9977 42 9977 78L9977 232C9977 331 10019 420 10095 420C10102 420 10104 420 10106 419C10103 418 10083 406 10083 380C10083 352 10104 337 10126 337C10144 337 10169 349 10169 381C10169 413 10138 442 10095 442C10022 442 9986 375 9972 332L9972 442L9833 431L9833 400C9903 400 9911 393 9911 344L9911 76C9911 31 9900 31 9833 31ZM10238 95C10238 14 10335 -11 10398 -11C10464 -11 10510 29 10529 76C10533 36 10560 -6 10607 -6C10628 -6 10689 8 10689 89L10689 145L10664 145L10664 89C10664 31 10639 25 10628 25C10595 25 10591 70 10591 75L10591 275C10591 317 10591 356 10555 393C10516 432 10466 448 10418 448C10336 448 10267 401 10267 335C10267 305 10287 288 10313 288C10341 288 10359 308 10359 334C10359 346 10354 379 10308 380C10335 415 10384 426 10416 426C10465 426 10522 387 10522 298L10522 261C10471 258 10401 255 10338 225C10263 191 10238 139 10238 95ZM10315 96C10315 151 10357 234 10522 240L10522 140C10522 45 10450 11 10405 11C10356 11 10315 46 10315 96ZM10728 0C10763 1 10814 3 10841 3C10867 3 10919 1 10953 0L10953 31C10886 31 10875 31 10875 76L10875 260C10875 364 10946 420 11010 420C11073 420 11084 366 11084 309L11084 76C11084 31 11073 31 11006 31L11006 0C11041 1 11092 3 11119 3C11145 3 11197 1 11231 0L11231 31C11179 31 11154 31 11153 61L11153 252C11153 338 11153 369 11122 405C11108 422 11075 442 11017 442C10944 442 10897 399 10869 337L10869 442L10728 431L10728 400C10798 400 10806 393 10806 344L10806 76C10806 31 10795 31 10728 31ZM11284 13C11284 -4 11284 -11 11295 -11C11300 -11 11301 -10 11320 9C11322 11 11322 13 11340 32C11384 -10 11429 -11 11450 -11C11565 -11 11611 56 11611 128C11611 181 11581 211 11569 223C11536 255 11497 263 11455 271C11399 282 11332 295 11332 353C11332 388 11358 429 11444 429C11554 429 11559 339 11561 308C11562 299 11571 299 11573 299C11586 299 11586 304 11586 323L11586 424C11586 441 11586 448 11575 448C11570 448 11568 448 11555 436C11552 432 11542 423 11538 420C11500 448 11459 448 11444 448C11322 448 11284 381 11284 325C11284 290 11300 262 11327 240C11359 214 11387 208 11459 194C11481 190 11563 174 11563 102C11563 51 11528 11 11450 11C11366 11 11330 68 11311 153C11308 166 11307 170 11297 170C11284 170 11284 163 11284 145ZM11678 400L11757 400L11757 76C11757 31 11746 31 11679 31L11679 0C11718 1 11765 3 11793 3C11833 3 11880 3 11920 0L11920 31L11899 31C11825 31 11823 42 11823 78L11823 400L11937 400L11937 431L11820 431L11820 547C11820 635 11868 683 11912 683C11915 683 11930 683 11945 676C11933 672 11915 659 11915 634C11915 611 11931 591 11958 591C11987 591 12002 611 12002 635C12002 672 11965 705 11912 705C11842 705 11757 652 11757 546L11757 431L11678 431ZM11978 214C11978 85 12082 -11 12199 -11C12320 -11 12421 87 12421 214C12421 342 12321 448 12200 448C12075 448 11978 339 11978 214ZM12061 222C12061 261 12061 315 12085 359C12112 405 12159 426 12199 426C12243 426 12286 404 12312 361C12338 318 12338 260 12338 222C12338 186 12338 132 12316 88C12294 43 12250 14 12200 14C12157 14 12113 35 12086 81C12061 125 12061 186 12061 222ZM12478 0C12517 1 12564 3 12592 3C12632 3 12679 3 12719 0L12719 31L12698 31C12624 31 12622 42 12622 78L12622 232C12622 331 12664 420 12740 420C12747 420 12749 420 12751 419C12748 418 12728 406 12728 380C12728 352 12749 337 12771 337C12789 337 12814 349 12814 381C12814 413 12783 442 12740 442C12667 442 12631 375 12617 332L12617 442L12478 431L12478 400C12548 400 12556 393 12556 344L12556 76C12556 31 12545 31 12478 31ZM12873 0C12908 1 12959 3 12986 3C13012 3 13064 1 13098 0L13098 31C13031 31 13020 31 13020 76L13020 260C13020 364 13091 420 13155 420C13218 420 13229 366 13229 309L13229 76C13229 31 13218 31 13151 31L13151 0C13186 1 13237 3 13264 3C13290 3 13342 1 13376 0L13376 31C13309 31 13298 31 13298 76L13298 260C13298 364 13369 420 13433 420C13496 420 13507 366 13507 309L13507 76C13507 31 13496 31 13429 31L13429 0C13464 1 13515 3 13542 3C13568 3 13620 1 13654 0L13654 31C13602 31 13577 31 13576 61L13576 252C13576 338 13576 369 13545 405C13531 422 13498 442 13440 442C13356 442 13312 382 13295 344C13281 431 13207 442 13162 442C13089 442 13042 399 13014 337L13014 442L12873 431L12873 400C12943 400 12951 393 12951 344L12951 76C12951 31 12940 31 12873 31ZM13716 95C13716 14 13813 -11 13876 -11C13942 -11 13988 29 14007 76C14011 36 14038 -6 14085 -6C14106 -6 14167 8 14167 89L14167 145L14142 145L14142 89C14142 31 14117 25 14106 25C14073 25 14069 70 14069 75L14069 275C14069 317 14069 356 14033 393C13994 432 13944 448 13896 448C13814 448 13745 401 13745 335C13745 305 13765 288 13791 288C13819 288 13837 308 13837 334C13837 346 13832 379 13786 380C13813 415 13862 426 13894 426C13943 426 14000 387 14000 298L14000 261C13949 258 13879 255 13816 225C13741 191 13716 139 13716 95ZM13793 96C13793 151 13835 234 14000 240L14000 140C14000 45 13928 11 13883 11C13834 11 13793 46 13793 96ZM14193 400L14278 400L14278 124C14278 1 14371 -11 14407 -11C14478 -11 14506 60 14506 124L14506 181L14481 181L14481 126C14481 52 14451 14 14414 14C14347 14 14347 105 14347 122L14347 400L14490 400L14490 431L14347 431L14347 615L14322 615C14321 533 14291 426 14193 422ZM14637 616C14637 589 14659 563 14690 563C14718 563 14743 584 14743 616C14743 648 14718 669 14690 669C14659 669 14637 642 14637 616ZM14595 0C14627 1 14681 3 14705 3C14740 3 14775 1 14809 0L14809 31C14743 31 14739 36 14739 75L14739 442L14599 431L14599 400C14664 400 14673 394 14673 345L14673 76C14673 31 14662 31 14595 31ZM14867 214C14867 85 14971 -11 15088 -11C15209 -11 15310 87 15310 214C15310 342 15210 448 15089 448C14964 448 14867 339 14867 214ZM14950 222C14950 261 14950 315 14974 359C15001 405 15048 426 15088 426C15132 426 15175 404 15201 361C15227 318 15227 260 15227 222C15227 186 15227 132 15205 88C15183 43 15139 14 15089 14C15046 14 15002 35 14975 81C14950 125 14950 186 14950 222ZM15371 0C15406 1 15457 3 15484 3C15510 3 15562 1 15596 0L15596 31C15529 31 15518 31 15518 76L15518 260C15518 364 15589 420 15653 420C15716 420 15727 366 15727 309L15727 76C15727 31 15716 31 15649 31L15649 0C15684 1 15735 3 15762 3C15788 3 15840 1 15874 0L15874 31C15822 31 15797 31 15796 61L15796 252C15796 338 15796 369 15765 405C15751 422 15718 442 15660 442C15587 442 15540 399 15512 337L15512 442L15371 431L15371 400C15441 400 15449 393 15449 344L15449 76C15449 31 15438 31 15371 31Z" stroke="rgb(255,255,255)" stroke-opacity="1" stroke-width="8" fill="rgb(255,255,255)" fill-opacity="1"></path></g></g><g><g><g><g><g transform="matrix(1,0,0,1,245.38543701171875,17.566671752929686)"><path transform="matrix(0.0119,0,0,-0.0119,0,0)" d="M390 646L463 646C541 646 577 641 580 629C583 621 585 602 584 592L580 528L608 528L635 692L544 691C456 690 388 689 353 689C316 689 252 690 166 691L71 692L53 528L82 528L97 588C102 610 109 626 115 633C121 640 159 646 196 646L308 646L222 125C206 34 204 31 164 28L113 25L109 -3L166 -2C206 -1 235 0 251 0C270 0 301 -1 340 -2L384 -3L387 25L328 28C302 29 292 37 292 58C292 67 293 74 296 93Z" stroke="rgb(255,255,255)" stroke-opacity="1" stroke-width="8" fill="rgb(255,255,255)" fill-opacity="1"></path></g></g></g></g></g></g></g><g><g><g><g transform="matrix(1,0,0,1,212.49481201171875,73.5)"><path transform="matrix(0.0105,0,0,-0.0105,0,0)" d="M32 400C110 400 110 397 110 308L110 158C110 80 110 -11 262 -11C318 -11 362 17 391 79L391 -11L535 0L535 31C465 31 457 38 457 87L457 442L310 431L310 400C380 400 388 393 388 344L388 166C388 79 340 11 267 11C183 11 179 58 179 110L179 442L32 431ZM588 13C588 -4 588 -11 599 -11C604 -11 605 -10 624 9C626 11 626 13 644 32C688 -10 733 -11 754 -11C869 -11 915 56 915 128C915 181 885 211 873 223C840 255 801 263 759 271C703 282 636 295 636 353C636 388 662 429 748 429C858 429 863 339 865 308C866 299 875 299 877 299C890 299 890 304 890 323L890 424C890 441 890 448 879 448C874 448 872 448 859 436C856 432 846 423 842 420C804 448 763 448 748 448C626 448 588 381 588 325C588 290 604 262 631 240C663 214 691 208 763 194C785 190 867 174 867 102C867 51 832 11 754 11C670 11 634 68 615 153C612 166 611 170 601 170C588 170 588 163 588 145ZM977 220C977 86 1082 -11 1197 -11C1319 -11 1364 100 1364 119C1364 129 1356 131 1351 131C1342 131 1340 125 1338 117C1303 14 1213 14 1203 14C1153 14 1113 44 1090 81C1060 129 1060 195 1060 231L1339 231C1361 231 1364 231 1364 252C1364 351 1310 448 1185 448C1069 448 977 345 977 220ZM1061 252C1067 401 1151 426 1185 426C1288 426 1298 291 1298 252ZM1760 216C1760 88 1859 -11 1975 -11C2109 -11 2141 109 2141 119C2141 129 2131 129 2128 129C2119 129 2117 125 2115 119C2086 26 2021 14 1984 14C1931 14 1843 57 1843 218C1843 381 1925 423 1978 423C1987 423 2050 422 2085 386C2044 383 2038 353 2038 340C2038 314 2056 294 2084 294C2110 294 2130 311 2130 341C2130 409 2054 448 1977 448C1852 448 1760 340 1760 216ZM2198 214C2198 85 2302 -11 2419 -11C2540 -11 2641 87 2641 214C2641 342 2541 448 2420 448C2295 448 2198 339 2198 214ZM2281 222C2281 261 2281 315 2305 359C2332 405 2379 426 2419 426C2463 426 2506 404 2532 361C2558 318 2558 260 2558 222C2558 186 2558 132 2536 88C2514 43 2470 14 2420 14C2377 14 2333 35 2306 81C2281 125 2281 186 2281 222ZM2726 214C2726 85 2830 -11 2947 -11C3068 -11 3169 87 3169 214C3169 342 3069 448 2948 448C2823 448 2726 339 2726 214ZM2809 222C2809 261 2809 315 2833 359C2860 405 2907 426 2947 426C2991 426 3034 404 3060 361C3086 318 3086 260 3086 222C3086 186 3086 132 3064 88C3042 43 2998 14 2948 14C2905 14 2861 35 2834 81C2809 125 2809 186 2809 222ZM3226 0C3265 1 3312 3 3340 3C3380 3 3427 3 3467 0L3467 31L3446 31C3372 31 3370 42 3370 78L3370 232C3370 331 3412 420 3488 420C3495 420 3497 420 3499 419C3496 418 3476 406 3476 380C3476 352 3497 337 3519 337C3537 337 3562 349 3562 381C3562 413 3531 442 3488 442C3415 442 3379 375 3365 332L3365 442L3226 431L3226 400C3296 400 3304 393 3304 344L3304 76C3304 31 3293 31 3226 31ZM3623 215C3623 88 3721 -11 3835 -11C3899 -11 3944 23 3969 55L3969 -11L4116 0L4116 31C4046 31 4038 38 4038 87L4038 694L3894 683L3894 652C3964 652 3972 645 3972 596L3972 380C3943 416 3900 442 3846 442C3728 442 3623 344 3623 215ZM3706 214C3706 251 3708 311 3737 356C3758 387 3796 420 3850 420C3885 420 3927 405 3958 360C3969 343 3969 341 3969 323L3969 118C3969 100 3969 98 3958 81C3928 33 3883 11 3840 11C3795 11 3759 37 3735 75C3709 116 3706 173 3706 214ZM4219 616C4219 589 4241 563 4272 563C4300 563 4325 584 4325 616C4325 648 4300 669 4272 669C4241 669 4219 642 4219 616ZM4177 0C4209 1 4263 3 4287 3C4322 3 4357 1 4391 0L4391 31C4325 31 4321 36 4321 75L4321 442L4181 431L4181 400C4246 400 4255 394 4255 345L4255 76C4255 31 4244 31 4177 31ZM4453 0C4488 1 4539 3 4566 3C4592 3 4644 1 4678 0L4678 31C4611 31 4600 31 4600 76L4600 260C4600 364 4671 420 4735 420C4798 420 4809 366 4809 309L4809 76C4809 31 4798 31 4731 31L4731 0C4766 1 4817 3 4844 3C4870 3 4922 1 4956 0L4956 31C4904 31 4879 31 4878 61L4878 252C4878 338 4878 369 4847 405C4833 422 4800 442 4742 442C4669 442 4622 399 4594 337L4594 442L4453 431L4453 400C4523 400 4531 393 4531 344L4531 76C4531 31 4520 31 4453 31ZM5018 95C5018 14 5115 -11 5178 -11C5244 -11 5290 29 5309 76C5313 36 5340 -6 5387 -6C5408 -6 5469 8 5469 89L5469 145L5444 145L5444 89C5444 31 5419 25 5408 25C5375 25 5371 70 5371 75L5371 275C5371 317 5371 356 5335 393C5296 432 5246 448 5198 448C5116 448 5047 401 5047 335C5047 305 5067 288 5093 288C5121 288 5139 308 5139 334C5139 346 5134 379 5088 380C5115 415 5164 426 5196 426C5245 426 5302 387 5302 298L5302 261C5251 258 5181 255 5118 225C5043 191 5018 139 5018 95ZM5095 96C5095 151 5137 234 5302 240L5302 140C5302 45 5230 11 5185 11C5136 11 5095 46 5095 96ZM5495 400L5580 400L5580 124C5580 1 5673 -11 5709 -11C5780 -11 5808 60 5808 124L5808 181L5783 181L5783 126C5783 52 5753 14 5716 14C5649 14 5649 105 5649 122L5649 400L5792 400L5792 431L5649 431L5649 615L5624 615C5623 533 5593 426 5495 422ZM5892 220C5892 86 5997 -11 6112 -11C6234 -11 6279 100 6279 119C6279 129 6271 131 6266 131C6257 131 6255 125 6253 117C6218 14 6128 14 6118 14C6068 14 6028 44 6005 81C5975 129 5975 195 5975 231L6254 231C6276 231 6279 231 6279 252C6279 351 6225 448 6100 448C5984 448 5892 345 5892 220ZM5976 252C5982 401 6066 426 6100 426C6203 426 6213 291 6213 252ZM6341 13C6341 -4 6341 -11 6352 -11C6357 -11 6358 -10 6377 9C6379 11 6379 13 6397 32C6441 -10 6486 -11 6507 -11C6622 -11 6668 56 6668 128C6668 181 6638 211 6626 223C6593 255 6554 263 6512 271C6456 282 6389 295 6389 353C6389 388 6415 429 6501 429C6611 429 6616 339 6618 308C6619 299 6628 299 6630 299C6643 299 6643 304 6643 323L6643 424C6643 441 6643 448 6632 448C6627 448 6625 448 6612 436C6609 432 6599 423 6595 420C6557 448 6516 448 6501 448C6379 448 6341 381 6341 325C6341 290 6357 262 6384 240C6416 214 6444 208 6516 194C6538 190 6620 174 6620 102C6620 51 6585 11 6507 11C6423 11 6387 68 6368 153C6365 166 6364 170 6354 170C6341 170 6341 163 6341 145Z" stroke="rgb(255,255,255)" stroke-opacity="1" stroke-width="8" fill="rgb(255,255,255)" fill-opacity="1"></path></g></g></g><g><g><g transform="matrix(1,0,0,1,236.703125,88.5)"><path transform="matrix(0.0105,0,0,-0.0105,0,0)" d="M75 616C75 589 97 563 128 563C156 563 181 584 181 616C181 648 156 669 128 669C97 669 75 642 75 616ZM33 0C65 1 119 3 143 3C178 3 213 1 247 0L247 31C181 31 177 36 177 75L177 442L37 431L37 400C102 400 111 394 111 345L111 76C111 31 100 31 33 31ZM309 0C344 1 395 3 422 3C448 3 500 1 534 0L534 31C467 31 456 31 456 76L456 260C456 364 527 420 591 420C654 420 665 366 665 309L665 76C665 31 654 31 587 31L587 0C622 1 673 3 700 3C726 3 778 1 812 0L812 31C760 31 735 31 734 61L734 252C734 338 734 369 703 405C689 422 656 442 598 442C525 442 478 399 450 337L450 442L309 431L309 400C379 400 387 393 387 344L387 76C387 31 376 31 309 31ZM1193 652C1263 652 1271 645 1271 596L1271 0L1296 0C1297 1 1305 15 1332 62C1347 39 1389 -11 1463 -11C1582 -11 1686 87 1686 216C1686 343 1588 442 1474 442C1396 442 1353 395 1337 377L1337 694L1193 683ZM1340 114L1340 320C1340 339 1340 340 1351 356C1390 412 1445 420 1469 420C1514 420 1550 394 1574 356C1600 315 1603 258 1603 217C1603 180 1601 120 1572 75C1551 44 1513 11 1459 11C1414 11 1378 35 1354 72C1340 93 1340 96 1340 114ZM1762 95C1762 14 1859 -11 1922 -11C1988 -11 2034 29 2053 76C2057 36 2084 -6 2131 -6C2152 -6 2213 8 2213 89L2213 145L2188 145L2188 89C2188 31 2163 25 2152 25C2119 25 2115 70 2115 75L2115 275C2115 317 2115 356 2079 393C2040 432 1990 448 1942 448C1860 448 1791 401 1791 335C1791 305 1811 288 1837 288C1865 288 1883 308 1883 334C1883 346 1878 379 1832 380C1859 415 1908 426 1940 426C1989 426 2046 387 2046 298L2046 261C1995 258 1925 255 1862 225C1787 191 1762 139 1762 95ZM1839 96C1839 151 1881 234 2046 240L2046 140C2046 45 1974 11 1929 11C1880 11 1839 46 1839 96ZM2253 13C2253 -4 2253 -11 2264 -11C2269 -11 2270 -10 2289 9C2291 11 2291 13 2309 32C2353 -10 2398 -11 2419 -11C2534 -11 2580 56 2580 128C2580 181 2550 211 2538 223C2505 255 2466 263 2424 271C2368 282 2301 295 2301 353C2301 388 2327 429 2413 429C2523 429 2528 339 2530 308C2531 299 2540 299 2542 299C2555 299 2555 304 2555 323L2555 424C2555 441 2555 448 2544 448C2539 448 2537 448 2524 436C2521 432 2511 423 2507 420C2469 448 2428 448 2413 448C2291 448 2253 381 2253 325C2253 290 2269 262 2296 240C2328 214 2356 208 2428 194C2450 190 2532 174 2532 102C2532 51 2497 11 2419 11C2335 11 2299 68 2280 153C2277 166 2276 170 2266 170C2253 170 2253 163 2253 145ZM2689 616C2689 589 2711 563 2742 563C2770 563 2795 584 2795 616C2795 648 2770 669 2742 669C2711 669 2689 642 2689 616ZM2647 0C2679 1 2733 3 2757 3C2792 3 2827 1 2861 0L2861 31C2795 31 2791 36 2791 75L2791 442L2651 431L2651 400C2716 400 2725 394 2725 345L2725 76C2725 31 2714 31 2647 31ZM2924 13C2924 -4 2924 -11 2935 -11C2940 -11 2941 -10 2960 9C2962 11 2962 13 2980 32C3024 -10 3069 -11 3090 -11C3205 -11 3251 56 3251 128C3251 181 3221 211 3209 223C3176 255 3137 263 3095 271C3039 282 2972 295 2972 353C2972 388 2998 429 3084 429C3194 429 3199 339 3201 308C3202 299 3211 299 3213 299C3226 299 3226 304 3226 323L3226 424C3226 441 3226 448 3215 448C3210 448 3208 448 3195 436C3192 432 3182 423 3178 420C3140 448 3099 448 3084 448C2962 448 2924 381 2924 325C2924 290 2940 262 2967 240C2999 214 3027 208 3099 194C3121 190 3203 174 3203 102C3203 51 3168 11 3090 11C3006 11 2970 68 2951 153C2948 166 2947 170 2937 170C2924 170 2924 163 2924 145Z" stroke="rgb(255,255,255)" stroke-opacity="1" stroke-width="8" fill="rgb(255,255,255)" fill-opacity="1"></path></g></g><g><g><g><g><g transform="matrix(1,0,0,1,274.6927490234375,88.5666717529297)"><path transform="matrix(0.0119,0,0,-0.0119,0,0)" d="M45 284C45 90 152 -18 343 -18C439 -18 510 5 600 67C600 67 610 103 610 103C610 103 600 110 600 110C506 53 454 35 376 35C219 35 133 131 133 309C133 447 190 653 418 653C489 653 541 639 597 603L597 519L624 519C629 576 637 619 651 665C575 694 518 706 456 706C276 706 45 578 45 284Z" stroke="rgb(255,255,255)" stroke-opacity="1" stroke-width="8" fill="rgb(255,255,255)" fill-opacity="1"></path></g></g></g></g></g></g></g></svg>
</svg>
